<svg version="1.1" id="Layer_1" xmlns="http://www.w3.org/2000/svg" xmlns:xlink="http://www.w3.org/1999/xlink" x="0px" y="0px"
	 viewBox="0 0 220 220" style="enable-background:new 0 0 220 220;" xml:space="preserve">
<style type="text/css">
	.st0qr{fill:#014C79;}
</style>
<g id="elements">
	<path class="st0qr" d="M4,4h4v4H4V4z M8,4h4v4H8V4z M12,4h4v4h-4V4z M16,4h4v4h-4V4z M20,4h4v4h-4V4z M24,4h4v4h-4V4z M28,4h4v4h-4V4
		z M36,4h4v4h-4V4z M40,4h4v4h-4V4z M44,4h4v4h-4V4z M60,4h4v4h-4V4z M68,4h4v4h-4V4z M96,4h4v4h-4V4z M100,4h4v4h-4V4z M104,4h4v4
		h-4V4z M108,4h4v4h-4V4z M112,4h4v4h-4V4z M116,4h4v4h-4V4z M120,4h4v4h-4V4z M124,4h4v4h-4V4z M148,4h4v4h-4V4z M152,4h4v4h-4V4z
		 M160,4h4v4h-4V4z M168,4h4v4h-4V4z M172,4h4v4h-4V4z M188,4h4v4h-4V4z M192,4h4v4h-4V4z M196,4h4v4h-4V4z M200,4h4v4h-4V4z M204,4
		h4v4h-4V4z M208,4h4v4h-4V4z M212,4h4v4h-4V4z M4,8h4v4H4V8z M28,8h4v4h-4V8z M48,8h4v4h-4V8z M52,8h4v4h-4V8z M56,8h4v4h-4V8z
		 M60,8h4v4h-4V8z M76,8h4v4h-4V8z M92,8h4v4h-4V8z M96,8h4v4h-4V8z M108,8h4v4h-4V8z M112,8h4v4h-4V8z M124,8h4v4h-4V8z M128,8h4v4
		h-4V8z M136,8h4v4h-4V8z M140,8h4v4h-4V8z M144,8h4v4h-4V8z M148,8h4v4h-4V8z M156,8h4v4h-4V8z M160,8h4v4h-4V8z M164,8h4v4h-4V8z
		 M168,8h4v4h-4V8z M172,8h4v4h-4V8z M176,8h4v4h-4V8z M188,8h4v4h-4V8z M212,8h4v4h-4V8z M4,12h4v4H4V12z M12,12h4v4h-4V12z M16,12
		h4v4h-4V12z M20,12h4v4h-4V12z M28,12h4v4h-4V12z M44,12h4v4h-4V12z M52,12h4v4h-4V12z M56,12h4v4h-4V12z M60,12h4v4h-4V12z M64,12
		h4v4h-4V12z M68,12h4v4h-4V12z M72,12h4v4h-4V12z M80,12h4v4h-4V12z M84,12h4v4h-4V12z M96,12h4v4h-4V12z M100,12h4v4h-4V12z
		 M104,12h4v4h-4V12z M116,12h4v4h-4V12z M120,12h4v4h-4V12z M132,12h4v4h-4V12z M164,12h4v4h-4V12z M176,12h4v4h-4V12z M188,12h4v4
		h-4V12z M196,12h4v4h-4V12z M200,12h4v4h-4V12z M204,12h4v4h-4V12z M212,12h4v4h-4V12z M4,16h4v4H4V16z M12,16h4v4h-4V16z M16,16h4
		v4h-4V16z M20,16h4v4h-4V16z M28,16h4v4h-4V16z M48,16h4v4h-4V16z M52,16h4v4h-4V16z M60,16h4v4h-4V16z M64,16h4v4h-4V16z M72,16h4
		v4h-4V16z M76,16h4v4h-4V16z M80,16h4v4h-4V16z M84,16h4v4h-4V16z M92,16h4v4h-4V16z M100,16h4v4h-4V16z M116,16h4v4h-4V16z
		 M128,16h4v4h-4V16z M136,16h4v4h-4V16z M144,16h4v4h-4V16z M148,16h4v4h-4V16z M156,16h4v4h-4V16z M168,16h4v4h-4V16z M172,16h4v4
		h-4V16z M180,16h4v4h-4V16z M188,16h4v4h-4V16z M196,16h4v4h-4V16z M200,16h4v4h-4V16z M204,16h4v4h-4V16z M212,16h4v4h-4V16z
		 M4,20h4v4H4V20z M12,20h4v4h-4V20z M16,20h4v4h-4V20z M20,20h4v4h-4V20z M28,20h4v4h-4V20z M36,20h4v4h-4V20z M48,20h4v4h-4V20z
		 M52,20h4v4h-4V20z M68,20h4v4h-4V20z M72,20h4v4h-4V20z M76,20h4v4h-4V20z M80,20h4v4h-4V20z M88,20h4v4h-4V20z M100,20h4v4h-4V20
		z M104,20h4v4h-4V20z M108,20h4v4h-4V20z M112,20h4v4h-4V20z M116,20h4v4h-4V20z M120,20h4v4h-4V20z M128,20h4v4h-4V20z M132,20h4
		v4h-4V20z M144,20h4v4h-4V20z M148,20h4v4h-4V20z M152,20h4v4h-4V20z M160,20h4v4h-4V20z M168,20h4v4h-4V20z M172,20h4v4h-4V20z
		 M188,20h4v4h-4V20z M196,20h4v4h-4V20z M200,20h4v4h-4V20z M204,20h4v4h-4V20z M212,20h4v4h-4V20z M4,24h4v4H4V24z M28,24h4v4h-4
		V24z M36,24h4v4h-4V24z M40,24h4v4h-4V24z M44,24h4v4h-4V24z M48,24h4v4h-4V24z M52,24h4v4h-4V24z M64,24h4v4h-4V24z M76,24h4v4h-4
		V24z M96,24h4v4h-4V24z M100,24h4v4h-4V24z M116,24h4v4h-4V24z M124,24h4v4h-4V24z M136,24h4v4h-4V24z M140,24h4v4h-4V24z M144,24
		h4v4h-4V24z M156,24h4v4h-4V24z M160,24h4v4h-4V24z M172,24h4v4h-4V24z M188,24h4v4h-4V24z M212,24h4v4h-4V24z M4,28h4v4H4V28z
		 M8,28h4v4H8V28z M12,28h4v4h-4V28z M16,28h4v4h-4V28z M20,28h4v4h-4V28z M24,28h4v4h-4V28z M28,28h4v4h-4V28z M36,28h4v4h-4V28z
		 M44,28h4v4h-4V28z M52,28h4v4h-4V28z M60,28h4v4h-4V28z M68,28h4v4h-4V28z M76,28h4v4h-4V28z M84,28h4v4h-4V28z M92,28h4v4h-4V28z
		 M100,28h4v4h-4V28z M108,28h4v4h-4V28z M116,28h4v4h-4V28z M124,28h4v4h-4V28z M132,28h4v4h-4V28z M140,28h4v4h-4V28z M148,28h4v4
		h-4V28z M156,28h4v4h-4V28z M164,28h4v4h-4V28z M172,28h4v4h-4V28z M180,28h4v4h-4V28z M188,28h4v4h-4V28z M192,28h4v4h-4V28z
		 M196,28h4v4h-4V28z M200,28h4v4h-4V28z M204,28h4v4h-4V28z M208,28h4v4h-4V28z M212,28h4v4h-4V28z M48,32h4v4h-4V32z M56,32h4v4
		h-4V32z M64,32h4v4h-4V32z M68,32h4v4h-4V32z M80,32h4v4h-4V32z M100,32h4v4h-4V32z M116,32h4v4h-4V32z M120,32h4v4h-4V32z M124,32
		h4v4h-4V32z M132,32h4v4h-4V32z M140,32h4v4h-4V32z M152,32h4v4h-4V32z M164,32h4v4h-4V32z M168,32h4v4h-4V32z M172,32h4v4h-4V32z
		 M176,32h4v4h-4V32z M180,32h4v4h-4V32z M8,36h4v4H8V36z M12,36h4v4h-4V36z M16,36h4v4h-4V36z M20,36h4v4h-4V36z M24,36h4v4h-4V36z
		 M28,36h4v4h-4V36z M32,36h4v4h-4V36z M40,36h4v4h-4V36z M48,36h4v4h-4V36z M52,36h4v4h-4V36z M64,36h4v4h-4V36z M68,36h4v4h-4V36z
		 M76,36h4v4h-4V36z M88,36h4v4h-4V36z M92,36h4v4h-4V36z M100,36h4v4h-4V36z M104,36h4v4h-4V36z M108,36h4v4h-4V36z M112,36h4v4h-4
		V36z M116,36h4v4h-4V36z M120,36h4v4h-4V36z M124,36h4v4h-4V36z M128,36h4v4h-4V36z M140,36h4v4h-4V36z M144,36h4v4h-4V36z M148,36
		h4v4h-4V36z M168,36h4v4h-4V36z M172,36h4v4h-4V36z M176,36h4v4h-4V36z M180,36h4v4h-4V36z M192,36h4v4h-4V36z M196,36h4v4h-4V36z
		 M212,36h4v4h-4V36z M4,40h4v4H4V40z M12,40h4v4h-4V40z M16,40h4v4h-4V40z M24,40h4v4h-4V40z M36,40h4v4h-4V40z M56,40h4v4h-4V40z
		 M60,40h4v4h-4V40z M64,40h4v4h-4V40z M76,40h4v4h-4V40z M80,40h4v4h-4V40z M84,40h4v4h-4V40z M88,40h4v4h-4V40z M96,40h4v4h-4V40z
		 M100,40h4v4h-4V40z M104,40h4v4h-4V40z M108,40h4v4h-4V40z M112,40h4v4h-4V40z M120,40h4v4h-4V40z M124,40h4v4h-4V40z M128,40h4v4
		h-4V40z M148,40h4v4h-4V40z M164,40h4v4h-4V40z M172,40h4v4h-4V40z M192,40h4v4h-4V40z M196,40h4v4h-4V40z M200,40h4v4h-4V40z
		 M204,40h4v4h-4V40z M208,40h4v4h-4V40z M212,40h4v4h-4V40z M8,44h4v4H8V44z M20,44h4v4h-4V44z M24,44h4v4h-4V44z M28,44h4v4h-4V44
		z M32,44h4v4h-4V44z M36,44h4v4h-4V44z M44,44h4v4h-4V44z M48,44h4v4h-4V44z M52,44h4v4h-4V44z M56,44h4v4h-4V44z M68,44h4v4h-4V44
		z M72,44h4v4h-4V44z M84,44h4v4h-4V44z M88,44h4v4h-4V44z M92,44h4v4h-4V44z M100,44h4v4h-4V44z M108,44h4v4h-4V44z M128,44h4v4h-4
		V44z M132,44h4v4h-4V44z M148,44h4v4h-4V44z M156,44h4v4h-4V44z M164,44h4v4h-4V44z M176,44h4v4h-4V44z M180,44h4v4h-4V44z M184,44
		h4v4h-4V44z M188,44h4v4h-4V44z M200,44h4v4h-4V44z M204,44h4v4h-4V44z M4,48h4v4H4V48z M12,48h4v4h-4V48z M24,48h4v4h-4V48z
		 M36,48h4v4h-4V48z M40,48h4v4h-4V48z M48,48h4v4h-4V48z M68,48h4v4h-4V48z M72,48h4v4h-4V48z M80,48h4v4h-4V48z M84,48h4v4h-4V48z
		 M96,48h4v4h-4V48z M104,48h4v4h-4V48z M112,48h4v4h-4V48z M124,48h4v4h-4V48z M132,48h4v4h-4V48z M136,48h4v4h-4V48z M152,48h4v4
		h-4V48z M172,48h4v4h-4V48z M192,48h4v4h-4V48z M200,48h4v4h-4V48z M208,48h4v4h-4V48z M12,52h4v4h-4V52z M24,52h4v4h-4V52z M28,52
		h4v4h-4V52z M44,52h4v4h-4V52z M52,52h4v4h-4V52z M72,52h4v4h-4V52z M80,52h4v4h-4V52z M84,52h4v4h-4V52z M96,52h4v4h-4V52z
		 M100,52h4v4h-4V52z M104,52h4v4h-4V52z M108,52h4v4h-4V52z M112,52h4v4h-4V52z M116,52h4v4h-4V52z M120,52h4v4h-4V52z M124,52h4v4
		h-4V52z M128,52h4v4h-4V52z M144,52h4v4h-4V52z M148,52h4v4h-4V52z M160,52h4v4h-4V52z M168,52h4v4h-4V52z M180,52h4v4h-4V52z
		 M196,52h4v4h-4V52z M200,52h4v4h-4V52z M204,52h4v4h-4V52z M208,52h4v4h-4V52z M212,52h4v4h-4V52z M36,56h4v4h-4V56z M52,56h4v4
		h-4V56z M56,56h4v4h-4V56z M60,56h4v4h-4V56z M68,56h4v4h-4V56z M88,56h4v4h-4V56z M96,56h4v4h-4V56z M100,56h4v4h-4V56z M108,56h4
		v4h-4V56z M120,56h4v4h-4V56z M124,56h4v4h-4V56z M128,56h4v4h-4V56z M132,56h4v4h-4V56z M136,56h4v4h-4V56z M168,56h4v4h-4V56z
		 M172,56h4v4h-4V56z M176,56h4v4h-4V56z M180,56h4v4h-4V56z M192,56h4v4h-4V56z M196,56h4v4h-4V56z M200,56h4v4h-4V56z M204,56h4v4
		h-4V56z M212,56h4v4h-4V56z M24,60h4v4h-4V60z M28,60h4v4h-4V60z M36,60h4v4h-4V60z M40,60h4v4h-4V60z M44,60h4v4h-4V60z M56,60h4
		v4h-4V60z M60,60h4v4h-4V60z M64,60h4v4h-4V60z M80,60h4v4h-4V60z M84,60h4v4h-4V60z M88,60h4v4h-4V60z M96,60h4v4h-4V60z M100,60
		h4v4h-4V60z M104,60h4v4h-4V60z M108,60h4v4h-4V60z M144,60h4v4h-4V60z M148,60h4v4h-4V60z M156,60h4v4h-4V60z M160,60h4v4h-4V60z
		 M188,60h4v4h-4V60z M192,60h4v4h-4V60z M204,60h4v4h-4V60z M4,64h4v4H4V64z M12,64h4v4h-4V64z M16,64h4v4h-4V64z M32,64h4v4h-4V64
		z M48,64h4v4h-4V64z M60,64h4v4h-4V64z M64,64h4v4h-4V64z M68,64h4v4h-4V64z M72,64h4v4h-4V64z M76,64h4v4h-4V64z M88,64h4v4h-4V64
		z M92,64h4v4h-4V64z M96,64h4v4h-4V64z M104,64h4v4h-4V64z M132,64h4v4h-4V64z M140,64h4v4h-4V64z M160,64h4v4h-4V64z M172,64h4v4
		h-4V64z M176,64h4v4h-4V64z M180,64h4v4h-4V64z M192,64h4v4h-4V64z M200,64h4v4h-4V64z M8,68h4v4H8V68z M12,68h4v4h-4V68z M24,68h4
		v4h-4V68z M28,68h4v4h-4V68z M36,68h4v4h-4V68z M44,68h4v4h-4V68z M52,68h4v4h-4V68z M60,68h4v4h-4V68z M72,68h4v4h-4V68z M84,68h4
		v4h-4V68z M88,68h4v4h-4V68z M92,68h4v4h-4V68z M100,68h4v4h-4V68z M104,68h4v4h-4V68z M108,68h4v4h-4V68z M124,68h4v4h-4V68z
		 M136,68h4v4h-4V68z M140,68h4v4h-4V68z M148,68h4v4h-4V68z M152,68h4v4h-4V68z M168,68h4v4h-4V68z M176,68h4v4h-4V68z M180,68h4v4
		h-4V68z M184,68h4v4h-4V68z M192,68h4v4h-4V68z M196,68h4v4h-4V68z M204,68h4v4h-4V68z M208,68h4v4h-4V68z M212,68h4v4h-4V68z
		 M4,72h4v4H4V72z M8,72h4v4H8V72z M12,72h4v4h-4V72z M16,72h4v4h-4V72z M20,72h4v4h-4V72z M24,72h4v4h-4V72z M36,72h4v4h-4V72z
		 M40,72h4v4h-4V72z M44,72h4v4h-4V72z M52,72h4v4h-4V72z M64,72h4v4h-4V72z M72,72h4v4h-4V72z M76,72h4v4h-4V72z M84,72h4v4h-4V72z
		 M88,72h4v4h-4V72z M92,72h4v4h-4V72z M116,72h4v4h-4V72z M120,72h4v4h-4V72z M124,72h4v4h-4V72z M132,72h4v4h-4V72z M144,72h4v4
		h-4V72z M152,72h4v4h-4V72z M160,72h4v4h-4V72z M168,72h4v4h-4V72z M172,72h4v4h-4V72z M192,72h4v4h-4V72z M204,72h4v4h-4V72z
		 M208,72h4v4h-4V72z M212,72h4v4h-4V72z M4,76h4v4H4V76z M12,76h4v4h-4V76z M16,76h4v4h-4V76z M24,76h4v4h-4V76z M28,76h4v4h-4V76z
		 M40,76h4v4h-4V76z M48,76h4v4h-4V76z M56,76h4v4h-4V76z M60,76h4v4h-4V76z M76,76h4v4h-4V76z M84,76h4v4h-4V76z M96,76h4v4h-4V76z
		 M100,76h4v4h-4V76z M104,76h4v4h-4V76z M120,76h4v4h-4V76z M124,76h4v4h-4V76z M128,76h4v4h-4V76z M132,76h4v4h-4V76z M136,76h4v4
		h-4V76z M140,76h4v4h-4V76z M144,76h4v4h-4V76z M148,76h4v4h-4V76z M152,76h4v4h-4V76z M180,76h4v4h-4V76z M188,76h4v4h-4V76z
		 M196,76h4v4h-4V76z M200,76h4v4h-4V76z M4,80h4v4H4V80z M8,80h4v4H8V80z M12,80h4v4h-4V80z M20,80h4v4h-4V80z M24,80h4v4h-4V80z
		 M36,80h4v4h-4V80z M48,80h4v4h-4V80z M60,80h4v4h-4V80z M64,80h4v4h-4V80z M80,80h4v4h-4V80z M88,80h4v4h-4V80z M92,80h4v4h-4V80z
		 M96,80h4v4h-4V80z M100,80h4v4h-4V80z M104,80h4v4h-4V80z M116,80h4v4h-4V80z M124,80h4v4h-4V80z M132,80h4v4h-4V80z M136,80h4v4
		h-4V80z M140,80h4v4h-4V80z M148,80h4v4h-4V80z M152,80h4v4h-4V80z M156,80h4v4h-4V80z M164,80h4v4h-4V80z M172,80h4v4h-4V80z
		 M176,80h4v4h-4V80z M180,80h4v4h-4V80z M188,80h4v4h-4V80z M200,80h4v4h-4V80z M208,80h4v4h-4V80z M212,80h4v4h-4V80z M8,84h4v4H8
		V84z M12,84h4v4h-4V84z M20,84h4v4h-4V84z M24,84h4v4h-4V84z M28,84h4v4h-4V84z M52,84h4v4h-4V84z M64,84h4v4h-4V84z M72,84h4v4h-4
		V84z M88,84h4v4h-4V84z M104,84h4v4h-4V84z M108,84h4v4h-4V84z M120,84h4v4h-4V84z M124,84h4v4h-4V84z M144,84h4v4h-4V84z M156,84
		h4v4h-4V84z M176,84h4v4h-4V84z M180,84h4v4h-4V84z M184,84h4v4h-4V84z M188,84h4v4h-4V84z M192,84h4v4h-4V84z M196,84h4v4h-4V84z
		 M200,84h4v4h-4V84z M204,84h4v4h-4V84z M208,84h4v4h-4V84z M12,88h4v4h-4V88z M16,88h4v4h-4V88z M32,88h4v4h-4V88z M40,88h4v4h-4
		V88z M60,88h4v4h-4V88z M64,88h4v4h-4V88z M72,88h4v4h-4V88z M92,88h4v4h-4V88z M96,88h4v4h-4V88z M100,88h4v4h-4V88z M108,88h4v4
		h-4V88z M124,88h4v4h-4V88z M128,88h4v4h-4V88z M152,88h4v4h-4V88z M156,88h4v4h-4V88z M160,88h4v4h-4V88z M164,88h4v4h-4V88z
		 M168,88h4v4h-4V88z M172,88h4v4h-4V88z M176,88h4v4h-4V88z M196,88h4v4h-4V88z M208,88h4v4h-4V88z M212,88h4v4h-4V88z M4,92h4v4H4
		V92z M12,92h4v4h-4V92z M16,92h4v4h-4V92z M20,92h4v4h-4V92z M24,92h4v4h-4V92z M28,92h4v4h-4V92z M32,92h4v4h-4V92z M48,92h4v4h-4
		V92z M68,92h4v4h-4V92z M72,92h4v4h-4V92z M76,92h4v4h-4V92z M84,92h4v4h-4V92z M96,92h4v4h-4V92z M100,92h4v4h-4V92z M108,92h4v4
		h-4V92z M112,92h4v4h-4V92z M120,92h4v4h-4V92z M124,92h4v4h-4V92z M128,92h4v4h-4V92z M136,92h4v4h-4V92z M140,92h4v4h-4V92z
		 M144,92h4v4h-4V92z M164,92h4v4h-4V92z M184,92h4v4h-4V92z M188,92h4v4h-4V92z M192,92h4v4h-4V92z M196,92h4v4h-4V92z M208,92h4v4
		h-4V92z M8,96h4v4H8V96z M12,96h4v4h-4V96z M24,96h4v4h-4V96z M32,96h4v4h-4V96z M36,96h4v4h-4V96z M44,96h4v4h-4V96z M60,96h4v4
		h-4V96z M68,96h4v4h-4V96z M76,96h4v4h-4V96z M80,96h4v4h-4V96z M84,96h4v4h-4V96z M104,96h4v4h-4V96z M120,96h4v4h-4V96z M124,96
		h4v4h-4V96z M128,96h4v4h-4V96z M132,96h4v4h-4V96z M136,96h4v4h-4V96z M140,96h4v4h-4V96z M144,96h4v4h-4V96z M148,96h4v4h-4V96z
		 M152,96h4v4h-4V96z M160,96h4v4h-4V96z M164,96h4v4h-4V96z M168,96h4v4h-4V96z M188,96h4v4h-4V96z M200,96h4v4h-4V96z M212,96h4v4
		h-4V96z M4,100h4v4H4V100z M12,100h4v4h-4V100z M16,100h4v4h-4V100z M20,100h4v4h-4V100z M24,100h4v4h-4V100z M28,100h4v4h-4V100z
		 M32,100h4v4h-4V100z M36,100h4v4h-4V100z M40,100h4v4h-4V100z M48,100h4v4h-4V100z M60,100h4v4h-4V100z M64,100h4v4h-4V100z
		 M76,100h4v4h-4V100z M84,100h4v4h-4V100z M100,100h4v4h-4V100z M104,100h4v4h-4V100z M108,100h4v4h-4V100z M112,100h4v4h-4V100z
		 M116,100h4v4h-4V100z M128,100h4v4h-4V100z M144,100h4v4h-4V100z M148,100h4v4h-4V100z M152,100h4v4h-4V100z M156,100h4v4h-4V100z
		 M168,100h4v4h-4V100z M172,100h4v4h-4V100z M180,100h4v4h-4V100z M184,100h4v4h-4V100z M188,100h4v4h-4V100z M192,100h4v4h-4V100z
		 M196,100h4v4h-4V100z M204,100h4v4h-4V100z M212,100h4v4h-4V100z M4,104h4v4H4V104z M12,104h4v4h-4V104z M20,104h4v4h-4V104z
		 M36,104h4v4h-4V104z M52,104h4v4h-4V104z M72,104h4v4h-4V104z M76,104h4v4h-4V104z M92,104h4v4h-4V104z M96,104h4v4h-4V104z
		 M100,104h4v4h-4V104z M116,104h4v4h-4V104z M120,104h4v4h-4V104z M128,104h4v4h-4V104z M148,104h4v4h-4V104z M152,104h4v4h-4V104z
		 M160,104h4v4h-4V104z M164,104h4v4h-4V104z M168,104h4v4h-4V104z M172,104h4v4h-4V104z M176,104h4v4h-4V104z M180,104h4v4h-4V104z
		 M196,104h4v4h-4V104z M212,104h4v4h-4V104z M8,108h4v4H8V108z M20,108h4v4h-4V108z M28,108h4v4h-4V108z M36,108h4v4h-4V108z
		 M48,108h4v4h-4V108z M52,108h4v4h-4V108z M64,108h4v4h-4V108z M68,108h4v4h-4V108z M84,108h4v4h-4V108z M92,108h4v4h-4V108z
		 M96,108h4v4h-4V108z M100,108h4v4h-4V108z M108,108h4v4h-4V108z M116,108h4v4h-4V108z M132,108h4v4h-4V108z M136,108h4v4h-4V108z
		 M140,108h4v4h-4V108z M144,108h4v4h-4V108z M148,108h4v4h-4V108z M152,108h4v4h-4V108z M156,108h4v4h-4V108z M160,108h4v4h-4V108z
		 M168,108h4v4h-4V108z M172,108h4v4h-4V108z M176,108h4v4h-4V108z M180,108h4v4h-4V108z M188,108h4v4h-4V108z M196,108h4v4h-4V108z
		 M16,112h4v4h-4V112z M20,112h4v4h-4V112z M36,112h4v4h-4V112z M40,112h4v4h-4V112z M44,112h4v4h-4V112z M52,112h4v4h-4V112z
		 M56,112h4v4h-4V112z M60,112h4v4h-4V112z M72,112h4v4h-4V112z M76,112h4v4h-4V112z M84,112h4v4h-4V112z M88,112h4v4h-4V112z
		 M92,112h4v4h-4V112z M96,112h4v4h-4V112z M100,112h4v4h-4V112z M116,112h4v4h-4V112z M128,112h4v4h-4V112z M136,112h4v4h-4V112z
		 M144,112h4v4h-4V112z M164,112h4v4h-4V112z M172,112h4v4h-4V112z M180,112h4v4h-4V112z M196,112h4v4h-4V112z M4,116h4v4H4V116z
		 M8,116h4v4H8V116z M20,116h4v4h-4V116z M24,116h4v4h-4V116z M28,116h4v4h-4V116z M32,116h4v4h-4V116z M36,116h4v4h-4V116z M44,116
		h4v4h-4V116z M56,116h4v4h-4V116z M64,116h4v4h-4V116z M68,116h4v4h-4V116z M100,116h4v4h-4V116z M104,116h4v4h-4V116z M108,116h4
		v4h-4V116z M112,116h4v4h-4V116z M116,116h4v4h-4V116z M136,116h4v4h-4V116z M140,116h4v4h-4V116z M144,116h4v4h-4V116z M148,116h4
		v4h-4V116z M156,116h4v4h-4V116z M172,116h4v4h-4V116z M176,116h4v4h-4V116z M180,116h4v4h-4V116z M184,116h4v4h-4V116z M188,116h4
		v4h-4V116z M192,116h4v4h-4V116z M196,116h4v4h-4V116z M200,116h4v4h-4V116z M204,116h4v4h-4V116z M212,116h4v4h-4V116z M4,120h4v4
		H4V120z M8,120h4v4H8V120z M16,120h4v4h-4V120z M24,120h4v4h-4V120z M32,120h4v4h-4V120z M40,120h4v4h-4V120z M48,120h4v4h-4V120z
		 M52,120h4v4h-4V120z M56,120h4v4h-4V120z M84,120h4v4h-4V120z M88,120h4v4h-4V120z M92,120h4v4h-4V120z M104,120h4v4h-4V120z
		 M108,120h4v4h-4V120z M116,120h4v4h-4V120z M128,120h4v4h-4V120z M144,120h4v4h-4V120z M148,120h4v4h-4V120z M152,120h4v4h-4V120z
		 M172,120h4v4h-4V120z M180,120h4v4h-4V120z M184,120h4v4h-4V120z M192,120h4v4h-4V120z M196,120h4v4h-4V120z M204,120h4v4h-4V120z
		 M208,120h4v4h-4V120z M212,120h4v4h-4V120z M8,124h4v4H8V124z M16,124h4v4h-4V124z M24,124h4v4h-4V124z M28,124h4v4h-4V124z
		 M32,124h4v4h-4V124z M40,124h4v4h-4V124z M52,124h4v4h-4V124z M56,124h4v4h-4V124z M60,124h4v4h-4V124z M68,124h4v4h-4V124z
		 M80,124h4v4h-4V124z M84,124h4v4h-4V124z M100,124h4v4h-4V124z M104,124h4v4h-4V124z M108,124h4v4h-4V124z M120,124h4v4h-4V124z
		 M140,124h4v4h-4V124z M144,124h4v4h-4V124z M148,124h4v4h-4V124z M156,124h4v4h-4V124z M172,124h4v4h-4V124z M176,124h4v4h-4V124z
		 M180,124h4v4h-4V124z M196,124h4v4h-4V124z M8,128h4v4H8V128z M16,128h4v4h-4V128z M20,128h4v4h-4V128z M24,128h4v4h-4V128z
		 M36,128h4v4h-4V128z M44,128h4v4h-4V128z M48,128h4v4h-4V128z M52,128h4v4h-4V128z M56,128h4v4h-4V128z M64,128h4v4h-4V128z
		 M68,128h4v4h-4V128z M72,128h4v4h-4V128z M76,128h4v4h-4V128z M80,128h4v4h-4V128z M100,128h4v4h-4V128z M116,128h4v4h-4V128z
		 M120,128h4v4h-4V128z M124,128h4v4h-4V128z M128,128h4v4h-4V128z M140,128h4v4h-4V128z M144,128h4v4h-4V128z M160,128h4v4h-4V128z
		 M164,128h4v4h-4V128z M176,128h4v4h-4V128z M180,128h4v4h-4V128z M184,128h4v4h-4V128z M188,128h4v4h-4V128z M192,128h4v4h-4V128z
		 M200,128h4v4h-4V128z M208,128h4v4h-4V128z M4,132h4v4H4V132z M20,132h4v4h-4V132z M24,132h4v4h-4V132z M28,132h4v4h-4V132z
		 M32,132h4v4h-4V132z M36,132h4v4h-4V132z M40,132h4v4h-4V132z M44,132h4v4h-4V132z M52,132h4v4h-4V132z M56,132h4v4h-4V132z
		 M64,132h4v4h-4V132z M68,132h4v4h-4V132z M72,132h4v4h-4V132z M84,132h4v4h-4V132z M92,132h4v4h-4V132z M96,132h4v4h-4V132z
		 M104,132h4v4h-4V132z M108,132h4v4h-4V132z M120,132h4v4h-4V132z M124,132h4v4h-4V132z M128,132h4v4h-4V132z M144,132h4v4h-4V132z
		 M148,132h4v4h-4V132z M152,132h4v4h-4V132z M180,132h4v4h-4V132z M188,132h4v4h-4V132z M200,132h4v4h-4V132z M204,132h4v4h-4V132z
		 M8,136h4v4H8V136z M12,136h4v4h-4V136z M20,136h4v4h-4V136z M32,136h4v4h-4V136z M48,136h4v4h-4V136z M52,136h4v4h-4V136z M56,136
		h4v4h-4V136z M60,136h4v4h-4V136z M64,136h4v4h-4V136z M72,136h4v4h-4V136z M88,136h4v4h-4V136z M92,136h4v4h-4V136z M100,136h4v4
		h-4V136z M128,136h4v4h-4V136z M144,136h4v4h-4V136z M148,136h4v4h-4V136z M152,136h4v4h-4V136z M164,136h4v4h-4V136z M172,136h4v4
		h-4V136z M176,136h4v4h-4V136z M180,136h4v4h-4V136z M196,136h4v4h-4V136z M208,136h4v4h-4V136z M212,136h4v4h-4V136z M4,140h4v4H4
		V140z M12,140h4v4h-4V140z M28,140h4v4h-4V140z M32,140h4v4h-4V140z M40,140h4v4h-4V140z M48,140h4v4h-4V140z M60,140h4v4h-4V140z
		 M64,140h4v4h-4V140z M68,140h4v4h-4V140z M76,140h4v4h-4V140z M80,140h4v4h-4V140z M88,140h4v4h-4V140z M92,140h4v4h-4V140z
		 M116,140h4v4h-4V140z M124,140h4v4h-4V140z M132,140h4v4h-4V140z M144,140h4v4h-4V140z M148,140h4v4h-4V140z M156,140h4v4h-4V140z
		 M160,140h4v4h-4V140z M176,140h4v4h-4V140z M196,140h4v4h-4V140z M8,144h4v4H8V144z M24,144h4v4h-4V144z M32,144h4v4h-4V144z
		 M56,144h4v4h-4V144z M68,144h4v4h-4V144z M92,144h4v4h-4V144z M108,144h4v4h-4V144z M112,144h4v4h-4V144z M120,144h4v4h-4V144z
		 M132,144h4v4h-4V144z M140,144h4v4h-4V144z M144,144h4v4h-4V144z M164,144h4v4h-4V144z M168,144h4v4h-4V144z M176,144h4v4h-4V144z
		 M180,144h4v4h-4V144z M192,144h4v4h-4V144z M196,144h4v4h-4V144z M200,144h4v4h-4V144z M4,148h4v4H4V148z M8,148h4v4H8V148z
		 M16,148h4v4h-4V148z M20,148h4v4h-4V148z M28,148h4v4h-4V148z M36,148h4v4h-4V148z M40,148h4v4h-4V148z M44,148h4v4h-4V148z
		 M48,148h4v4h-4V148z M52,148h4v4h-4V148z M60,148h4v4h-4V148z M72,148h4v4h-4V148z M76,148h4v4h-4V148z M80,148h4v4h-4V148z
		 M108,148h4v4h-4V148z M116,148h4v4h-4V148z M124,148h4v4h-4V148z M128,148h4v4h-4V148z M148,148h4v4h-4V148z M152,148h4v4h-4V148z
		 M156,148h4v4h-4V148z M168,148h4v4h-4V148z M172,148h4v4h-4V148z M180,148h4v4h-4V148z M184,148h4v4h-4V148z M192,148h4v4h-4V148z
		 M200,148h4v4h-4V148z M204,148h4v4h-4V148z M208,148h4v4h-4V148z M212,148h4v4h-4V148z M4,152h4v4H4V152z M12,152h4v4h-4V152z
		 M24,152h4v4h-4V152z M36,152h4v4h-4V152z M40,152h4v4h-4V152z M44,152h4v4h-4V152z M48,152h4v4h-4V152z M52,152h4v4h-4V152z
		 M56,152h4v4h-4V152z M64,152h4v4h-4V152z M68,152h4v4h-4V152z M92,152h4v4h-4V152z M96,152h4v4h-4V152z M104,152h4v4h-4V152z
		 M108,152h4v4h-4V152z M112,152h4v4h-4V152z M116,152h4v4h-4V152z M120,152h4v4h-4V152z M128,152h4v4h-4V152z M132,152h4v4h-4V152z
		 M144,152h4v4h-4V152z M148,152h4v4h-4V152z M152,152h4v4h-4V152z M164,152h4v4h-4V152z M172,152h4v4h-4V152z M188,152h4v4h-4V152z
		 M192,152h4v4h-4V152z M196,152h4v4h-4V152z M200,152h4v4h-4V152z M204,152h4v4h-4V152z M212,152h4v4h-4V152z M8,156h4v4H8V156z
		 M12,156h4v4h-4V156z M28,156h4v4h-4V156z M56,156h4v4h-4V156z M60,156h4v4h-4V156z M64,156h4v4h-4V156z M84,156h4v4h-4V156z
		 M88,156h4v4h-4V156z M104,156h4v4h-4V156z M128,156h4v4h-4V156z M132,156h4v4h-4V156z M144,156h4v4h-4V156z M148,156h4v4h-4V156z
		 M156,156h4v4h-4V156z M164,156h4v4h-4V156z M176,156h4v4h-4V156z M184,156h4v4h-4V156z M196,156h4v4h-4V156z M200,156h4v4h-4V156z
		 M204,156h4v4h-4V156z M208,156h4v4h-4V156z M8,160h4v4H8V160z M12,160h4v4h-4V160z M24,160h4v4h-4V160z M32,160h4v4h-4V160z
		 M36,160h4v4h-4V160z M44,160h4v4h-4V160z M56,160h4v4h-4V160z M64,160h4v4h-4V160z M68,160h4v4h-4V160z M76,160h4v4h-4V160z
		 M80,160h4v4h-4V160z M88,160h4v4h-4V160z M92,160h4v4h-4V160z M104,160h4v4h-4V160z M120,160h4v4h-4V160z M124,160h4v4h-4V160z
		 M132,160h4v4h-4V160z M144,160h4v4h-4V160z M152,160h4v4h-4V160z M160,160h4v4h-4V160z M164,160h4v4h-4V160z M168,160h4v4h-4V160z
		 M176,160h4v4h-4V160z M180,160h4v4h-4V160z M184,160h4v4h-4V160z M188,160h4v4h-4V160z M192,160h4v4h-4V160z M196,160h4v4h-4V160z
		 M200,160h4v4h-4V160z M212,160h4v4h-4V160z M4,164h4v4H4V164z M12,164h4v4h-4V164z M20,164h4v4h-4V164z M28,164h4v4h-4V164z
		 M40,164h4v4h-4V164z M56,164h4v4h-4V164z M60,164h4v4h-4V164z M64,164h4v4h-4V164z M68,164h4v4h-4V164z M80,164h4v4h-4V164z
		 M88,164h4v4h-4V164z M96,164h4v4h-4V164z M108,164h4v4h-4V164z M112,164h4v4h-4V164z M120,164h4v4h-4V164z M124,164h4v4h-4V164z
		 M128,164h4v4h-4V164z M140,164h4v4h-4V164z M144,164h4v4h-4V164z M148,164h4v4h-4V164z M156,164h4v4h-4V164z M160,164h4v4h-4V164z
		 M168,164h4v4h-4V164z M172,164h4v4h-4V164z M180,164h4v4h-4V164z M188,164h4v4h-4V164z M192,164h4v4h-4V164z M196,164h4v4h-4V164z
		 M204,164h4v4h-4V164z M212,164h4v4h-4V164z M4,168h4v4H4V168z M16,168h4v4h-4V168z M24,168h4v4h-4V168z M36,168h4v4h-4V168z
		 M40,168h4v4h-4V168z M48,168h4v4h-4V168z M56,168h4v4h-4V168z M64,168h4v4h-4V168z M72,168h4v4h-4V168z M76,168h4v4h-4V168z
		 M80,168h4v4h-4V168z M88,168h4v4h-4V168z M108,168h4v4h-4V168z M112,168h4v4h-4V168z M116,168h4v4h-4V168z M120,168h4v4h-4V168z
		 M128,168h4v4h-4V168z M132,168h4v4h-4V168z M144,168h4v4h-4V168z M148,168h4v4h-4V168z M152,168h4v4h-4V168z M164,168h4v4h-4V168z
		 M168,168h4v4h-4V168z M172,168h4v4h-4V168z M176,168h4v4h-4V168z M196,168h4v4h-4V168z M200,168h4v4h-4V168z M208,168h4v4h-4V168z
		 M212,168h4v4h-4V168z M4,172h4v4H4V172z M8,172h4v4H8V172z M16,172h4v4h-4V172z M20,172h4v4h-4V172z M24,172h4v4h-4V172z M28,172
		h4v4h-4V172z M32,172h4v4h-4V172z M40,172h4v4h-4V172z M48,172h4v4h-4V172z M56,172h4v4h-4V172z M64,172h4v4h-4V172z M68,172h4v4
		h-4V172z M72,172h4v4h-4V172z M76,172h4v4h-4V172z M84,172h4v4h-4V172z M92,172h4v4h-4V172z M104,172h4v4h-4V172z M108,172h4v4h-4
		V172z M112,172h4v4h-4V172z M120,172h4v4h-4V172z M128,172h4v4h-4V172z M132,172h4v4h-4V172z M136,172h4v4h-4V172z M144,172h4v4h-4
		V172z M152,172h4v4h-4V172z M156,172h4v4h-4V172z M164,172h4v4h-4V172z M180,172h4v4h-4V172z M192,172h4v4h-4V172z M200,172h4v4h-4
		V172z M8,176h4v4H8V176z M12,176h4v4h-4V176z M36,176h4v4h-4V176z M44,176h4v4h-4V176z M64,176h4v4h-4V176z M68,176h4v4h-4V176z
		 M72,176h4v4h-4V176z M76,176h4v4h-4V176z M84,176h4v4h-4V176z M96,176h4v4h-4V176z M100,176h4v4h-4V176z M128,176h4v4h-4V176z
		 M132,176h4v4h-4V176z M140,176h4v4h-4V176z M152,176h4v4h-4V176z M160,176h4v4h-4V176z M168,176h4v4h-4V176z M176,176h4v4h-4V176z
		 M180,176h4v4h-4V176z M188,176h4v4h-4V176z M196,176h4v4h-4V176z M200,176h4v4h-4V176z M212,176h4v4h-4V176z M16,180h4v4h-4V180z
		 M28,180h4v4h-4V180z M32,180h4v4h-4V180z M40,180h4v4h-4V180z M44,180h4v4h-4V180z M48,180h4v4h-4V180z M52,180h4v4h-4V180z
		 M56,180h4v4h-4V180z M76,180h4v4h-4V180z M80,180h4v4h-4V180z M84,180h4v4h-4V180z M96,180h4v4h-4V180z M100,180h4v4h-4V180z
		 M104,180h4v4h-4V180z M108,180h4v4h-4V180z M112,180h4v4h-4V180z M116,180h4v4h-4V180z M124,180h4v4h-4V180z M128,180h4v4h-4V180z
		 M136,180h4v4h-4V180z M140,180h4v4h-4V180z M144,180h4v4h-4V180z M148,180h4v4h-4V180z M156,180h4v4h-4V180z M164,180h4v4h-4V180z
		 M168,180h4v4h-4V180z M180,180h4v4h-4V180z M184,180h4v4h-4V180z M188,180h4v4h-4V180z M192,180h4v4h-4V180z M196,180h4v4h-4V180z
		 M200,180h4v4h-4V180z M204,180h4v4h-4V180z M212,180h4v4h-4V180z M36,184h4v4h-4V184z M40,184h4v4h-4V184z M52,184h4v4h-4V184z
		 M56,184h4v4h-4V184z M68,184h4v4h-4V184z M72,184h4v4h-4V184z M76,184h4v4h-4V184z M80,184h4v4h-4V184z M88,184h4v4h-4V184z
		 M92,184h4v4h-4V184z M96,184h4v4h-4V184z M100,184h4v4h-4V184z M116,184h4v4h-4V184z M128,184h4v4h-4V184z M140,184h4v4h-4V184z
		 M144,184h4v4h-4V184z M152,184h4v4h-4V184z M160,184h4v4h-4V184z M164,184h4v4h-4V184z M168,184h4v4h-4V184z M172,184h4v4h-4V184z
		 M180,184h4v4h-4V184z M196,184h4v4h-4V184z M200,184h4v4h-4V184z M212,184h4v4h-4V184z M4,188h4v4H4V188z M8,188h4v4H8V188z
		 M12,188h4v4h-4V188z M16,188h4v4h-4V188z M20,188h4v4h-4V188z M24,188h4v4h-4V188z M28,188h4v4h-4V188z M36,188h4v4h-4V188z
		 M48,188h4v4h-4V188z M52,188h4v4h-4V188z M72,188h4v4h-4V188z M76,188h4v4h-4V188z M80,188h4v4h-4V188z M88,188h4v4h-4V188z
		 M100,188h4v4h-4V188z M108,188h4v4h-4V188z M116,188h4v4h-4V188z M120,188h4v4h-4V188z M128,188h4v4h-4V188z M136,188h4v4h-4V188z
		 M144,188h4v4h-4V188z M152,188h4v4h-4V188z M156,188h4v4h-4V188z M164,188h4v4h-4V188z M168,188h4v4h-4V188z M180,188h4v4h-4V188z
		 M188,188h4v4h-4V188z M196,188h4v4h-4V188z M200,188h4v4h-4V188z M4,192h4v4H4V192z M28,192h4v4h-4V192z M36,192h4v4h-4V192z
		 M48,192h4v4h-4V192z M56,192h4v4h-4V192z M60,192h4v4h-4V192z M68,192h4v4h-4V192z M76,192h4v4h-4V192z M80,192h4v4h-4V192z
		 M100,192h4v4h-4V192z M116,192h4v4h-4V192z M120,192h4v4h-4V192z M124,192h4v4h-4V192z M132,192h4v4h-4V192z M136,192h4v4h-4V192z
		 M144,192h4v4h-4V192z M172,192h4v4h-4V192z M180,192h4v4h-4V192z M196,192h4v4h-4V192z M200,192h4v4h-4V192z M208,192h4v4h-4V192z
		 M4,196h4v4H4V196z M12,196h4v4h-4V196z M16,196h4v4h-4V196z M20,196h4v4h-4V196z M28,196h4v4h-4V196z M36,196h4v4h-4V196z M40,196
		h4v4h-4V196z M44,196h4v4h-4V196z M48,196h4v4h-4V196z M56,196h4v4h-4V196z M64,196h4v4h-4V196z M72,196h4v4h-4V196z M76,196h4v4
		h-4V196z M88,196h4v4h-4V196z M92,196h4v4h-4V196z M100,196h4v4h-4V196z M104,196h4v4h-4V196z M108,196h4v4h-4V196z M112,196h4v4
		h-4V196z M116,196h4v4h-4V196z M120,196h4v4h-4V196z M128,196h4v4h-4V196z M140,196h4v4h-4V196z M144,196h4v4h-4V196z M148,196h4v4
		h-4V196z M156,196h4v4h-4V196z M168,196h4v4h-4V196z M172,196h4v4h-4V196z M180,196h4v4h-4V196z M184,196h4v4h-4V196z M188,196h4v4
		h-4V196z M192,196h4v4h-4V196z M196,196h4v4h-4V196z M200,196h4v4h-4V196z M204,196h4v4h-4V196z M4,200h4v4H4V200z M12,200h4v4h-4
		V200z M16,200h4v4h-4V200z M20,200h4v4h-4V200z M28,200h4v4h-4V200z M36,200h4v4h-4V200z M44,200h4v4h-4V200z M52,200h4v4h-4V200z
		 M64,200h4v4h-4V200z M72,200h4v4h-4V200z M84,200h4v4h-4V200z M92,200h4v4h-4V200z M96,200h4v4h-4V200z M100,200h4v4h-4V200z
		 M104,200h4v4h-4V200z M120,200h4v4h-4V200z M128,200h4v4h-4V200z M132,200h4v4h-4V200z M144,200h4v4h-4V200z M152,200h4v4h-4V200z
		 M164,200h4v4h-4V200z M168,200h4v4h-4V200z M172,200h4v4h-4V200z M200,200h4v4h-4V200z M212,200h4v4h-4V200z M4,204h4v4H4V204z
		 M12,204h4v4h-4V204z M16,204h4v4h-4V204z M20,204h4v4h-4V204z M28,204h4v4h-4V204z M36,204h4v4h-4V204z M40,204h4v4h-4V204z
		 M48,204h4v4h-4V204z M52,204h4v4h-4V204z M56,204h4v4h-4V204z M72,204h4v4h-4V204z M76,204h4v4h-4V204z M80,204h4v4h-4V204z
		 M84,204h4v4h-4V204z M92,204h4v4h-4V204z M100,204h4v4h-4V204z M104,204h4v4h-4V204z M108,204h4v4h-4V204z M112,204h4v4h-4V204z
		 M116,204h4v4h-4V204z M120,204h4v4h-4V204z M124,204h4v4h-4V204z M128,204h4v4h-4V204z M132,204h4v4h-4V204z M136,204h4v4h-4V204z
		 M140,204h4v4h-4V204z M144,204h4v4h-4V204z M148,204h4v4h-4V204z M152,204h4v4h-4V204z M160,204h4v4h-4V204z M168,204h4v4h-4V204z
		 M176,204h4v4h-4V204z M180,204h4v4h-4V204z M188,204h4v4h-4V204z M192,204h4v4h-4V204z M196,204h4v4h-4V204z M200,204h4v4h-4V204z
		 M4,208h4v4H4V208z M28,208h4v4h-4V208z M36,208h4v4h-4V208z M48,208h4v4h-4V208z M52,208h4v4h-4V208z M68,208h4v4h-4V208z M76,208
		h4v4h-4V208z M80,208h4v4h-4V208z M92,208h4v4h-4V208z M96,208h4v4h-4V208z M100,208h4v4h-4V208z M116,208h4v4h-4V208z M120,208h4
		v4h-4V208z M132,208h4v4h-4V208z M140,208h4v4h-4V208z M144,208h4v4h-4V208z M148,208h4v4h-4V208z M160,208h4v4h-4V208z M164,208h4
		v4h-4V208z M192,208h4v4h-4V208z M196,208h4v4h-4V208z M200,208h4v4h-4V208z M208,208h4v4h-4V208z M4,212h4v4H4V212z M8,212h4v4H8
		V212z M12,212h4v4h-4V212z M16,212h4v4h-4V212z M20,212h4v4h-4V212z M24,212h4v4h-4V212z M28,212h4v4h-4V212z M48,212h4v4h-4V212z
		 M52,212h4v4h-4V212z M56,212h4v4h-4V212z M68,212h4v4h-4V212z M76,212h4v4h-4V212z M80,212h4v4h-4V212z M88,212h4v4h-4V212z
		 M96,212h4v4h-4V212z M104,212h4v4h-4V212z M108,212h4v4h-4V212z M116,212h4v4h-4V212z M120,212h4v4h-4V212z M128,212h4v4h-4V212z
		 M136,212h4v4h-4V212z M148,212h4v4h-4V212z M152,212h4v4h-4V212z M168,212h4v4h-4V212z M172,212h4v4h-4V212z M180,212h4v4h-4V212z
		 M184,212h4v4h-4V212z M188,212h4v4h-4V212z M196,212h4v4h-4V212z M204,212h4v4h-4V212z"/>
</g>
</svg>
