<svg xmlns="http://www.w3.org/2000/svg" xmlns:xlink="http://www.w3.org/1999/xlink" version="1.1" id="Layer_1" x="0px" y="0px" style="enable-background:new 0 0 612 396;" xml:space="preserve" viewBox="299.22 192.02 12.75 12.75">
<style type="text/css">
	.st0crypt{fill:#034B76;stroke:#FFC624;stroke-width:0.7517;stroke-miterlimit:10;}
	.st1crypt{fill:#FFC62A;}
</style>
<g>
	<circle class="st0crypt" cx="305.6" cy="198.4" r="6"/>
	<path class="st1crypt" d="M308.5,195.7C308.5,195.6,308.5,195.6,308.5,195.7L308.5,195.7L308.5,195.7L308.5,195.7L308.5,195.7   C308.5,195.6,308.5,195.6,308.5,195.7C308.5,195.6,308.4,195.6,308.5,195.7L308.5,195.7L308.5,195.7L308.5,195.7   C308.4,195.6,308.4,195.6,308.5,195.7C308.4,195.6,308.4,195.6,308.5,195.7L308.5,195.7c-0.1-0.1-0.1-0.1-0.1-0.1c0,0,0,0,0,0   c0,0,0,0-0.1,0.1l0,0l0,0c0,0,0,0-0.1,0c0,0,0,0,0,0s0,0,0,0l0,0c0,0,0,0,0,0s0,0,0,0l0,0l0,0v0l0,0l0,0v0c0,0,0,0,0,0c0,0,0,0,0,0   c0,0,0,0,0,0c0,0,0,0,0,0c0,0,0,0,0,0s0,0,0,0.1c0,0,0,0,0,0s0,0,0,0c0,0,0,0,0,0.1c0,0,0,0,0,0.1c0,0,0,0,0,0l0,0c0,0,0,0,0,0   c0,0,0,0,0,0l-0.3,0.4c-0.1,0.1-0.2,0.1-0.3,0.1c0,0-0.1,0-0.1,0c-0.1,0-0.2,0-0.3-0.1c-0.1,0-0.3-0.2-0.3-0.2c0,0,0,0,0,0   c0,0,0.1,0,0.2,0c0.1,0,0.1-0.1,0.1-0.1c0,0,0-0.1,0-0.1v0c0,0,0.1,0,0.1,0c0-0.1,0-0.2,0-0.2c0,0,0,0,0,0c0,0,0,0,0-0.1   c0-0.1,0-0.2-0.1-0.3c-0.1-0.1-0.3-0.1-0.4-0.1c-0.2,0-0.3,0.2-0.2,0.4c0,0,0,0.1,0,0.1c0,0.1-0.1,0.2-0.2,0.2c-0.1,0-0.2,0-0.3,0   c-0.2,0-0.4,0.1-0.6,0.1c-0.2,0-0.5,0.1-0.7,0.2c-0.2,0.1-0.5,0.2-0.7,0.3h0h0l0,0l0,0l0,0c0,0-0.1,0-0.1,0s-0.1,0-0.1,0   c0,0,0,0-0.1,0c0,0,0,0,0,0c0,0,0,0,0,0c0,0,0,0,0,0c0,0,0,0,0,0l0,0l0,0c0,0,0,0,0,0c0,0,0,0,0,0l0,0c0,0,0,0,0,0c0,0,0,0,0,0   c0,0,0,0,0,0.1c0,0,0,0,0,0l0,0l0,0v0v0h0c0,0,0,0,0,0c0,0,0,0,0,0c0,0,0,0,0,0c0,0,0.1,0,0.1,0s0.1,0,0.1,0c0,0,0,0,0,0   c0,0,0,0,0,0l0,0l0,0c0,0,0,0,0,0.1c0,0,0,0,0,0c0,0,0,0,0,0.1c0,0,0,0,0,0l0,0l0,0l0,0c0,0,0,0,0,0l0,0c0,0,0,0,0,0c0,0,0,0,0,0   c0,0,0,0,0,0c0,0,0,0,0,0c0,0,0,0,0,0c0,0,0,0,0,0c0,0,0,0,0,0c0,0,0,0,0,0c0.1,0,0.4-0.1,0.5-0.1c0.2,0,0.2-0.1,0.4-0.1   c0,0,0,0,0.1,0c0.1,0,0.2,0,0.3,0c0.1,0,0.1,0,0.1,0.1c0,0,0,0.1,0.1,0.1l0.1,0v0c0,0,0,0,0,0l-0.1,0.6c0,0.2,0,0.4-0.1,0.5   c0,0.1,0,0.1-0.1,0.2c-0.2,0.1-0.3,0.3-0.2,0.6c0,0.1,0,0.1,0,0.2c-0.1,0.2-0.2,0.4-0.3,0.6c-0.1,0.1-0.1,0.2-0.3,0.2   c-0.2,0-0.4,0.1-0.5,0.2c-0.2,0.1-0.4,0.3-0.6,0.4c0,0-0.1,0-0.2,0c0,0,0,0-0.1,0c-0.1,0-0.1,0-0.2,0.1c0,0.1-0.1,0.3-0.2,0.4   c-0.1,0.2-0.1,0.4-0.1,0.6c0,0,0,0.1,0.1,0.1c0,0,0.1-0.1,0.1-0.1c0.1-0.3,0.3-0.4,0.5-0.5c0,0,0,0,0,0c0,0,0,0-0.1-0.1   c0.2-0.1,0.4-0.2,0.5-0.3c0.1,0,0.2-0.1,0.3-0.1c0.2-0.1,0.4-0.2,0.6-0.2c0.1,0,0.2,0,0.2-0.1c0.3-0.3,0.6-0.6,0.8-1   c0.1-0.1,0.1-0.2,0.3-0.1c0.1,0,0.1,0,0.2,0c0.2,0,0.3,0,0.5-0.1c0.1,0,0.1,0,0.2,0c0,0.1,0,0.1,0,0.2c0,0.1,0,0.2,0,0.3   c0,0.4,0,0.7-0.2,1c-0.1,0.1,0,0.2,0.1,0.2c0.1,0,0.2,0.1,0.4,0.1c0.2,0.1,0.3,0.1,0.5,0.1c0,0,0,0,0.1-0.1c0,0,0-0.1-0.1-0.1   c-0.1,0-0.2-0.1-0.3-0.2l0,0c-0.1-0.1-0.1-0.3-0.1-0.3c0,0,0,0,0,0c0-0.1,0-0.3,0-0.4c0.1-0.3,0.2-0.6,0.3-0.9c0-0.1,0-0.1,0-0.2   c0-0.1,0-0.2-0.1-0.3c0,0-0.1,0-0.2-0.1c-0.2-0.1-0.5-0.2-0.7-0.2c-0.1,0-0.2,0-0.4-0.1c0.1-0.3,0.2-0.5,0.4-0.7   c0.1-0.1,0.1-0.2,0.2-0.3c0-0.1,0.1-0.1,0.2-0.1c0.1,0,0.3,0,0.4,0c0.1,0,0.3,0,0.4,0c0.1,0,0.1,0,0.2-0.1l0,0   c0.1-0.1,0.4-0.6,0.4-0.6v0l0,0l0,0c0,0,0-0.1,0.1-0.1c0,0,0,0,0,0c0,0,0,0,0,0c0,0,0,0,0,0l0,0l0,0c0,0,0,0,0,0c0,0,0,0,0,0   s0,0,0-0.1C308.4,195.8,308.4,195.8,308.5,195.7C308.4,195.7,308.4,195.7,308.5,195.7L308.5,195.7   C308.5,195.7,308.5,195.7,308.5,195.7C308.5,195.7,308.5,195.7,308.5,195.7z"/>
</g>
</svg>