<svg xmlns="http://www.w3.org/2000/svg" xmlns:xlink="http://www.w3.org/1999/xlink" version="1.1" id="Layer_1" x="0px" y="0px" style="enable-background:new 0 0 612 396;" xml:space="preserve" viewBox="230.17 150.12 152.93 96.38">
<style type="text/css">
	.st0logo{fill:#F3F2F3;}
	.st1logo{fill:#FFC521;}
</style>
<g>
	<g>
		<g>
			<path class="st0logo" d="M247.1,209.8c-4.5,0-8.1-3.6-8.1-8.1c0-4.5,3.6-8.1,8.1-8.1c2.6,0,5.1,1.2,6.6,3.4l7.1-5.1     c-5.4-7.6-16-9.3-23.6-3.8c-7.6,5.4-9.3,16-3.8,23.6c5.4,7.6,16,9.3,23.6,3.8c1.5-1.1,2.8-2.4,3.8-3.8l-7.1-5.1     C252.2,208.5,249.7,209.8,247.1,209.8"/>
			<rect x="264" y="192.9" class="st0logo" width="8.8" height="25.2"/>
			<path class="st0logo" d="M317.2,192.9l-4.7,15.2l-5-15.2h-9.2l9.6,24.2c-0.4,0.8-1.2,1.3-2.1,1.2c-1.8-0.1-3.6-0.7-5.3-1.6v7.3     c2.2,1.1,4.6,1.6,7,1.6c5,0,7.4-2.3,9.6-8.2l9.2-24.6H317.2z"/>
			<path class="st0logo" d="M296.2,200l-2.7-7.1h-4.3v-6.4h-8.8v6.4h-3.5v7.1h3.5v10.3c0,6,3.1,8.3,8.4,8.3c2.5,0,5.7-1.1,7.3-2v-6.9     c-1.1,0.5-3.4,1.4-4.5,1.4c-1.6,0-2.4-0.7-2.4-2.5V200H296.2z"/>
			<rect x="264" y="182.7" class="st0logo" width="8.8" height="6.6"/>
			<path class="st0logo" d="M344.3,184.8h-8.8L323.9,218h3.3l4.3-12.1h8.1c6,0,10.6-1.5,13.4-4.3c2-2,3.1-4.8,3-7.6     c0.1-2.3-0.7-4.5-2.3-6.1C351.6,185.9,348.4,184.8,344.3,184.8 M352.7,194c0.1,2.1-0.7,4.1-2.2,5.6c-2.2,2.2-6,3.3-11,3.3h-7.1     l5.3-15.1h6.5c3.1,0,5.4,0.7,6.8,2.2C352.2,191.1,352.8,192.5,352.7,194L352.7,194z"/>
			<polygon class="st0logo" points="358.7,184.8 357.6,187.9 368.3,187.9 357.6,218.1 360.9,218.1 371.5,187.9 382.1,187.9 383.1,184.8         "/>
			<path class="st1logo" d="M357.4,152.5L357.4,152.5c0.1-0.1,0.1-0.2,0.1-0.3v-0.1v-0.1l-0.1,0c-0.1,0-0.1,0.1-0.1,0.1     s-0.2,0.1-0.1,0.1l0.1-0.2h-0.1l-0.1,0c-0.1,0-0.1,0.1-0.2,0.1c-0.1,0.1-0.1,0,0,0h-0.1l-0.1,0.1c-0.1,0-0.2,0.1-0.3,0.1     c-0.2,0.1-0.3,0.2-0.4,0.4l0,0c-0.1,0.1-0.2,0.2-0.4,0.3c-0.1,0-0.2,0.1-0.3,0.2c-0.1,0.1-0.1,0.1-0.1,0c0-0.1,0-0.1,0-0.2     c0-0.1,0-0.1,0-0.2v-0.1v-0.1c0,0,0-0.1,0-0.1c0-0.1,0-0.1-0.1-0.2c-0.2,0-0.2,0.2-0.2,0.2c0,0.1-0.1,0.1-0.2,0.2     c-0.1,0.1,0,0.2,0,0.3c0,0.1,0,0.2-0.1,0.3c0,0.1,0,0.1-0.1,0.2c0,0.1,0,0.1,0,0.2l0.1,0.4c0,0.1,0,0.2,0.1,0.3     c0,0.1,0,0.2-0.1,0.3c0,0.1-0.1,0.2-0.2,0.3c0,0.1-0.1,0.1-0.1,0.2l-1.7,2.2c-0.4,0.5-1.1,0.7-1.7,0.4c-0.3-0.1-0.5-0.2-0.8-0.2     c-0.6-0.1-1.2-0.2-1.8-0.4c-0.7-0.4-1.4-0.9-2.1-1.4c-0.1,0-0.1-0.1-0.2-0.1c0.3-0.2,0.7,0.1,1,0.1c0.4,0.1,0.4-0.4,0.6-0.6     c0.1-0.1,0.2-0.3,0.1-0.4v-0.3c0,0,0.5,0.1,0.4-0.3c-0.1-0.4-0.1-0.7,0-1.1c0-0.1,0-0.2,0.1-0.2c0-0.2,0-0.3,0-0.5     c-0.1-0.6-0.1-1.4-0.7-1.7c-0.8-0.5-1.7-0.7-2.6-0.5c-1,0.3-1.6,1.3-1.4,2.3c0.1,0.3,0.1,0.6,0.1,0.9c0,0.5-0.4,1-0.9,1     c-0.1,0-0.2,0-0.2,0c-0.6-0.2-1.3-0.3-2-0.3c-1.2,0.1-2.4,0.3-3.6,0.6c-1.4,0.3-2.8,0.7-4.2,1.2c-1.3,0.4-3.3,1.2-4.6,1.7l-0.1,0     h-0.2c-0.2-0.1-0.4-0.1-0.6-0.1c-0.2,0-0.5,0.1-0.7,0.1h-0.5c-0.1,0-0.1,0-0.2,0.1l-0.3,0.2l-0.2,0.1c0,0-0.1,0.1-0.1,0.1     c0.1-0.1,0.1,0,0,0.1c-0.1,0-0.1,0.1-0.1,0.2c0.2-0.1-0.1,0.1-0.1,0.2c-0.1,0.1-0.1,0.1-0.2,0.2s-0.3,0.2-0.3,0.3     c0.1-0.1,0.1,0,0,0.1l0,0l-0.1,0.1l0,0.1l0,0.1l0.1,0c0.1,0,0.2-0.1,0.3-0.1c0.1,0,0.2-0.1,0.3-0.1c0.1,0,0.2,0,0.3,0     c0.2,0,0.4,0,0.6,0c0.2,0,0.4,0.1,0.6,0.1c0.1,0,0.2,0.1,0.3,0.1c0.1,0,0.1,0.1,0.1,0.1v0c-0.1,0.1-0.1,0.2-0.2,0.3     c-0.1,0.1-0.2,0.2-0.3,0.2c-0.2,0.1-0.3,0.3-0.3,0.5c0,0.1,0,0.1,0.1,0.1h0h0c0.1,0,0.2-0.1,0.2-0.2l0.1-0.1     c0.1-0.1,0.2-0.2,0.3-0.2c0.1-0.1,0.2-0.2,0.3-0.3c0.1-0.1,0.2-0.1,0.3-0.2c0.1-0.1,0.2-0.2,0.3-0.2c0.1-0.1,0.2-0.2,0.2-0.3     c0.1-0.1,0.1-0.2,0.2-0.3c0-0.1,0.1-0.2,0.2-0.2c0.1,0,0.1-0.1,0.2-0.1c0.8-0.2,2.4-0.4,3.2-0.6c1.1-0.3,1.5-0.4,2.6-0.7     c0.1,0,0.3-0.1,0.4,0c0.5,0,1.1,0.1,1.6,0.1c0.4,0,0.7,0,0.8,0.4c0.1,0.2,0.2,0.3,0.4,0.4l0.9-0.1l0,0.2c0,0.1,0,0.1,0,0.2     l-0.8,3.9c-0.2,1-0.3,2.1-0.5,3.1c-0.1,0.4-0.3,0.8-0.6,1.1c-1.1,0.7-1.6,2-1.3,3.2c0.1,0.5,0,0.9-0.3,1.3     c-0.6,1.1-1.3,2.3-1.8,3.5c-0.3,0.7-0.9,1.3-1.7,1.4c-1.2,0.1-2.3,0.5-3.2,1.2c-1.1,0.9-2.3,1.7-3.4,2.5c-0.3,0.3-0.7,0.3-1,0.1     c-0.2-0.1-0.3-0.1-0.5-0.2c-0.5-0.2-0.9-0.1-1.1,0.5c-0.3,0.8-0.6,1.6-1.1,2.3c-0.8,1-0.7,2.1-0.4,3.2c0,0.2,0.3,0.4,0.5,0.5     c0.2-0.2,0.4-0.4,0.5-0.6c0.4-1.6,1.6-2.4,3-3c0.1,0,0.1-0.1,0.2-0.1l-0.4-0.5c1.1-0.5,2.2-1.1,3.3-1.6c0.6-0.3,1.3-0.5,2-0.8     c1.2-0.6,2.4-1,3.7-1.2c0.5-0.1,1-0.2,1.5-0.5c2-1.7,3.8-3.6,5.2-5.9c0.4-0.7,0.9-1.1,1.7-0.9c0.4,0.1,0.7,0.1,1.1,0     c1-0.1,1.9-0.3,2.9-0.4c0.4,0,0.7,0,1.1,0c-0.1,0.5-0.2,0.8-0.3,1.2c-0.1,0.6-0.2,1.1-0.2,1.7c0.2,2.1,0.2,4.1-1.1,5.9     c-0.5,0.7-0.2,1.2,0.5,1.5c0.8,0.3,1.5,0.5,2.2,0.9c1,0.4,2.1,0.5,3.1,0.4c0.2,0,0.3-0.3,0.5-0.4c-0.2-0.2-0.3-0.4-0.5-0.4     c-0.8,0-1.3-0.6-1.9-1.1c-0.5-0.6-0.5-1.6-0.6-1.6c-0.1,0-0.2,0.1-0.3,0.2c-0.2-0.7-0.2-1.4,0-2.1c0.7-1.9,1.2-3.7,1.8-5.6     c0.1-0.4,0.2-0.9,0.3-1.4c0.2-0.6-0.1-1.3-0.6-1.6c-0.3-0.2-0.6-0.3-1-0.4c-1.5-0.5-3-1-4.5-1.4c-0.8-0.2-1.5-0.3-2.3-0.3     c0.7-1.6,1.5-3,2.4-4.4c0.4-0.6,0.9-1.1,1.3-1.7c0.2-0.3,0.7-0.5,1-0.4c0.9,0.1,1.8,0.3,2.7,0.3s1.7,0,2.6,0     c0.4,0.1,0.7-0.1,1-0.4c0.7-0.6,2.2-3.8,2.2-3.8l0.1-0.1c0.1-0.2,0.2-0.3,0.4-0.5c0.1-0.1,0.2-0.1,0.3-0.2     c0.1-0.1,0.2-0.1,0.3-0.2c0.1-0.1,0.2-0.2,0.2-0.2c0,0,0.1-0.1,0.1-0.1l0.1-0.1c0.1-0.1,0.1-0.2,0.2-0.3c0-0.1,0.1-0.2,0.1-0.3     c0-0.1,0.1-0.2,0.2-0.3c0-0.1,0.1-0.2,0.2-0.3c0.1-0.1,0.1-0.2,0.1-0.4v-0.1C357.4,152.8,357.4,152.6,357.4,152.5     C357.2,152.6,357.3,152.5,357.4,152.5"/>
			<polygon class="st0logo" points="235.7,240.4 231.6,234.6 232.5,234.6 236.1,239.8 239.7,234.6 240.5,234.6 236.4,240.4 236.4,244.2      235.7,244.2    "/>
			<path class="st0logo" d="M240.3,240.8L240.3,240.8c0-2,1.5-3.7,3.6-3.7c2.1,0,3.6,1.7,3.6,3.6v0c0,2-1.5,3.7-3.6,3.7     C241.8,244.4,240.3,242.7,240.3,240.8 M246.7,240.8L246.7,240.8c0-1.7-1.3-3.1-2.9-3.1c-1.7,0-2.9,1.4-2.9,3v0c0,1.7,1.3,3,2.9,3     C245.5,243.8,246.7,242.4,246.7,240.8"/>
			<path class="st0logo" d="M249.4,241.5v-4.3h0.7v4.2c0,1.4,0.8,2.4,2.2,2.4c1.4,0,2.4-1,2.4-2.5v-4.1h0.7v7h-0.7v-1.3     c-0.5,0.8-1.2,1.5-2.5,1.5C250.4,244.4,249.4,243.2,249.4,241.5"/>
			<path class="st0logo" d="M257.9,237.2h0.7v2c0.5-1.2,1.7-2.2,3.1-2.1v0.7h-0.1c-1.6,0-3,1.2-3,3.5v2.9h-0.7V237.2z"/>
			<path class="st0logo" d="M268.2,242.7v1.5h-0.7v-10h0.7v4.6c0.6-0.9,1.5-1.7,2.9-1.7c1.7,0,3.4,1.4,3.4,3.6v0c0,2.3-1.7,3.7-3.4,3.7     C269.7,244.4,268.8,243.6,268.2,242.7 M273.8,240.8L273.8,240.8c0-1.9-1.3-3-2.7-3c-1.5,0-2.9,1.2-2.9,3v0c0,1.8,1.4,3,2.9,3     C272.6,243.7,273.8,242.6,273.8,240.8"/>
			<path class="st0logo" d="M276.1,240.8L276.1,240.8c0-2,1.5-3.7,3.6-3.7c2.1,0,3.6,1.7,3.6,3.6v0c0,2-1.5,3.7-3.6,3.7     C277.6,244.4,276.1,242.7,276.1,240.8 M282.6,240.8L282.6,240.8c0-1.7-1.3-3.1-2.9-3.1c-1.7,0-2.9,1.4-2.9,3v0c0,1.7,1.3,3,2.9,3     C281.4,243.8,282.6,242.4,282.6,240.8"/>
			<path class="st0logo" d="M284.9,240.8L284.9,240.8c0-2.3,1.7-3.7,3.4-3.7c1.4,0,2.3,0.8,2.9,1.7v-4.5h0.7v10h-0.7v-1.6     c-0.6,0.9-1.5,1.7-2.9,1.7C286.7,244.4,284.9,243,284.9,240.8 M291.3,240.7L291.3,240.7c0-1.8-1.4-3-2.9-3c-1.5,0-2.7,1.1-2.7,3     v0c0,1.8,1.3,3,2.7,3C289.9,243.7,291.3,242.5,291.3,240.7"/>
			<path class="st0logo" d="M299.9,237.2h0.7l-3,7.3c-0.6,1.5-1.3,2-2.3,2c-0.5,0-0.9-0.1-1.4-0.3l0.2-0.6c0.4,0.2,0.7,0.3,1.2,0.3     c0.7,0,1.2-0.4,1.7-1.6l-3.4-7h0.8l2.9,6.3L299.9,237.2z"/>
			<path class="st0logo" d="M300.8,245.4c0.6-0.3,0.8-0.6,0.8-1.1h-0.4v-1.2h0.9v1c0,0.9-0.3,1.3-1.1,1.6L300.8,245.4z"/>
			<path class="st0logo" d="M308.2,240.8L308.2,240.8c0-2,1.5-3.7,3.6-3.7c2.1,0,3.6,1.7,3.6,3.6v0c0,2-1.5,3.7-3.6,3.7     C309.7,244.4,308.2,242.7,308.2,240.8 M314.6,240.8L314.6,240.8c0-1.7-1.3-3.1-2.9-3.1c-1.7,0-2.9,1.4-2.9,3v0c0,1.7,1.3,3,2.9,3     C313.4,243.8,314.6,242.4,314.6,240.8"/>
			<path class="st0logo" d="M317.4,237.2h0.7v1.6c0.6-0.9,1.5-1.7,2.9-1.7c1.7,0,3.4,1.4,3.4,3.6v0c0,2.3-1.7,3.7-3.4,3.7     c-1.4,0-2.3-0.8-2.9-1.7v3.7h-0.7V237.2z M323.7,240.8L323.7,240.8c0-1.9-1.3-3-2.7-3c-1.5,0-2.9,1.2-2.9,3v0c0,1.8,1.4,3,2.9,3     C322.4,243.7,323.7,242.6,323.7,240.8"/>
			<path class="st0logo" d="M326.8,242.4v-4.6h-1v-0.6h1V235h0.7v2.2h2.5v0.6h-2.5v4.5c0,1,0.6,1.4,1.4,1.4c0.3,0,0.6-0.1,1-0.2v0.6     c-0.4,0.2-0.7,0.2-1.1,0.2C327.7,244.3,326.8,243.8,326.8,242.4"/>
			<path class="st0logo" d="M332,234.5h0.8v0.9H332V234.5z M332.1,237.2h0.7v7h-0.7V237.2z"/>
			<path class="st0logo" d="M335.4,237.2h0.7v1.2c0.5-0.7,1.1-1.4,2.3-1.4c1.2,0,2,0.7,2.4,1.5c0.5-0.8,1.2-1.5,2.5-1.5     c1.7,0,2.7,1.2,2.7,2.9v4.2h-0.7v-4.2c0-1.5-0.8-2.4-2.1-2.4c-1.2,0-2.2,0.9-2.2,2.5v4.1h-0.7V240c0-1.5-0.8-2.3-2-2.3     s-2.2,1.1-2.2,2.5v4h-0.7V237.2z"/>
			<path class="st0logo" d="M348.4,234.5h0.8v0.9h-0.8V234.5z M348.5,237.2h0.7v7h-0.7V237.2z"/>
			<polygon class="st0logo" points="351.3,243.8 356.4,237.8 351.5,237.8 351.5,237.2 357.4,237.2 357.4,237.6 352.3,243.6 357.4,243.6      357.4,244.2 351.3,244.2    "/>
			<path class="st0logo" d="M358.7,240.7L358.7,240.7c0-2.1,1.4-3.7,3.3-3.7c2,0,3.2,1.6,3.2,3.7c0,0.1,0,0.2,0,0.3h-5.8     c0.1,1.7,1.4,2.8,2.7,2.8c1.1,0,1.8-0.5,2.4-1.1l0.5,0.4c-0.7,0.8-1.6,1.3-2.9,1.3C360.3,244.4,358.7,242.9,358.7,240.7      M364.5,240.4c-0.1-1.4-0.9-2.7-2.5-2.7c-1.4,0-2.5,1.2-2.6,2.7H364.5z"/>
			<path class="st0logo" d="M366.8,240.8L366.8,240.8c0-2.3,1.7-3.7,3.4-3.7c1.4,0,2.3,0.8,2.9,1.7v-4.5h0.7v10h-0.7v-1.6     c-0.6,0.9-1.5,1.7-2.9,1.7C368.5,244.4,366.8,243,366.8,240.8 M373.1,240.7L373.1,240.7c0-1.8-1.4-3-2.9-3c-1.5,0-2.7,1.1-2.7,3     v0c0,1.8,1.3,3,2.7,3C371.7,243.7,373.1,242.5,373.1,240.7"/>
			<path class="st0logo" d="M377.5,236L377.5,236c0-1,0.8-1.8,1.7-1.8c1,0,1.7,0.8,1.7,1.7v0c0,0.9-0.8,1.7-1.7,1.7     C378.2,237.8,377.5,237,377.5,236 M380.8,236L380.8,236c0-0.9-0.7-1.6-1.5-1.6c-0.9,0-1.5,0.7-1.5,1.6v0c0,0.9,0.7,1.5,1.5,1.5     C380.1,237.6,380.8,236.9,380.8,236 M378.6,235.1h0.8c0.4,0,0.6,0.2,0.6,0.5c0,0.3-0.2,0.5-0.4,0.5l0.5,0.7h-0.4l-0.4-0.6h-0.4     v0.6h-0.3V235.1z M379.3,236c0.2,0,0.4-0.1,0.4-0.3c0-0.2-0.1-0.3-0.4-0.3h-0.5v0.6H379.3z"/>
		</g>
	</g>
</g>
</svg>